<svg width="100" height="87" viewBox="0 0 100 87" fill="none" xmlns="http://www.w3.org/2000/svg">
<path d="M58.9296 43.253C58.9296 38.4716 54.932 34.595 50 34.595C45.0686 34.595 41.0703 38.4716 41.0703 43.253C41.0703 48.035 45.0686 51.9113 50 51.9113C54.932 51.9113 58.9296 48.035 58.9296 43.253Z" fill="#53C1DE"/>
<path fill-rule="evenodd" clip-rule="evenodd" d="M79.0013 27.179C80.887 19.7493 83.2573 5.9716 74.9013 1.30053C66.5843 -3.35017 55.7613 5.56143 50.0463 10.9106C44.348 5.61473 33.221 -3.25877 24.8721 1.42713C16.5584 6.09343 19.1221 19.6427 21.0497 27.119C13.2944 29.2547 0 33.8547 0 43.253C0 52.6247 13.2805 57.6293 20.9899 59.763C19.0553 67.2807 16.6199 80.6363 24.9442 85.2923C33.3243 89.9773 44.4167 81.315 50.1847 75.9073C55.9363 81.288 66.6553 90.007 74.974 85.338C83.3187 80.6543 81.1453 67.0613 79.2177 59.5417C86.691 57.4033 100 52.5077 100 43.253C100 33.945 86.6343 29.3077 79.0013 27.179ZM78.054 55.5567C76.7883 51.672 75.08 47.541 72.9903 43.2737C74.985 39.107 76.627 35.0293 77.8573 31.1697C83.453 32.7427 95.7283 36.3377 95.7283 43.253C95.7283 50.2333 83.9487 53.8623 78.054 55.5567ZM72.8333 81.7533C66.6267 85.2367 57.407 76.8987 53.1593 72.9363C55.9773 69.948 58.7933 66.474 61.5417 62.6163C66.3763 62.2007 70.9433 61.5207 75.0853 60.5923C76.442 65.9113 79.0673 78.2543 72.8333 81.7533ZM27.0787 81.7037C20.8714 78.2333 23.7086 66.3153 25.1319 60.7777C29.2278 61.6563 33.762 62.2883 38.608 62.6693C41.3743 66.444 44.272 69.9137 47.192 72.9523C43.5843 76.336 33.315 85.19 27.0787 81.7037ZM4.27163 43.253C4.27163 36.2467 16.4736 32.6777 22.1968 31.1087C23.4484 35.055 25.0898 39.1813 27.0708 43.354C25.0642 47.5887 23.3992 51.7803 22.1362 55.7733C16.679 54.2587 4.27163 50.2637 4.27163 43.253ZM27.0123 5.0118C33.245 1.51386 42.9157 10.0328 47.053 13.8671C44.148 16.8918 41.277 20.3353 38.5343 24.0883C33.8313 24.511 29.3292 25.1897 25.1903 26.099C23.6375 20.069 20.7864 8.50596 27.0123 5.0118ZM64.5977 28.5903C67.7883 28.9807 70.8453 29.5 73.7157 30.1353C72.854 32.8133 71.78 35.6137 70.515 38.4843C68.6813 35.111 66.713 31.8053 64.5977 28.5903ZM50.0477 16.827C52.018 18.8966 53.9913 21.2077 55.9327 23.715C51.995 23.5343 48.051 23.5337 44.1133 23.7123C46.0563 21.2283 48.0467 18.9206 50.0477 16.827ZM29.5217 38.4813C28.2776 35.6207 27.2133 32.808 26.3441 30.0917C29.1973 29.4727 32.24 28.9667 35.41 28.5827C33.2887 31.7907 31.3237 35.095 29.5217 38.4813ZM35.501 58.219C32.2263 57.8647 29.1375 57.3843 26.2852 56.7823C27.1681 54.0183 28.2559 51.145 29.5265 48.2227C31.3533 51.6443 33.3483 54.9807 35.501 58.219ZM50.166 69.9717C48.1413 67.8533 46.1217 65.5103 44.1493 62.9903C48.1093 63.141 52.077 63.1413 56.0367 62.97C54.0893 65.536 52.123 67.8823 50.166 69.9717ZM70.5557 48.074C71.8923 51.028 73.019 53.8857 73.914 56.603C71.0143 57.2447 67.884 57.7613 64.5857 58.145C66.7167 54.869 68.7163 51.512 70.5557 48.074ZM59.1577 58.647C53.1003 59.0667 47.0053 59.062 40.946 58.6813C37.503 53.805 34.438 48.6767 31.7923 43.3527C34.4253 38.0397 37.468 32.9213 40.8947 28.0527C46.9583 27.6083 53.0593 27.607 59.123 28.0553C62.5203 32.9237 65.5583 38.0287 68.2523 43.2937C65.5903 48.604 62.5317 53.7327 59.1577 58.647ZM72.7677 4.88866C79.002 8.37513 76.227 20.7575 74.865 26.142C70.7163 25.2137 66.211 24.523 61.4943 24.0937C58.7463 20.3001 55.8993 16.8506 53.0413 13.865C57.2317 9.94803 66.5937 1.4363 72.7677 4.88866Z" fill="#53C1DE"/>
</svg>
